<svg width="107" height="30" viewBox="0 0 107 30" fill="none" xmlns="http://www.w3.org/2000/svg">
<path d="M14.5825 27.7879C15.9381 29.4711 18.6241 29.0413 19.379 27.0204L27.6371 4.91401C28.4687 2.68791 26.2822 0.521143 24.043 1.35239L1.81478 9.60423C-0.218153 10.3589 -0.644312 13.0283 1.05383 14.3707L5.35903 17.774C6.02828 18.303 6.97442 18.3108 7.65237 17.7928L18.0723 9.83119C18.3706 9.60326 18.7929 9.63049 19.059 9.89484C19.3251 10.1592 19.3525 10.5786 19.1231 10.8749L11.1101 21.222C10.5875 21.8968 10.5965 22.8389 11.1319 23.5036L14.5825 27.7879Z" fill="#A64EFF"/>
<path d="M44.4928 22L41.5769 16.7076H40.7581V22H37.343V7.98015H43.0748C44.1799 7.98015 45.1185 8.1732 45.8907 8.55932C46.6763 8.94543 47.2621 9.47799 47.6482 10.157C48.0343 10.8227 48.2274 11.5683 48.2274 12.3938C48.2274 13.3258 47.9611 14.1579 47.4285 14.8902C46.9093 15.6225 46.1371 16.1418 45.1119 16.448L48.3472 22H44.4928ZM40.7581 14.2911H42.8751C43.5008 14.2911 43.9668 14.138 44.2731 13.8317C44.5926 13.5255 44.7524 13.0928 44.7524 12.5336C44.7524 12.001 44.5926 11.5816 44.2731 11.2754C43.9668 10.9692 43.5008 10.8161 42.8751 10.8161H40.7581V14.2911ZM55.4439 22.1598C54.3521 22.1598 53.3669 21.9268 52.4881 21.4608C51.6227 20.9948 50.937 20.3291 50.4311 19.4636C49.9385 18.5982 49.6922 17.5863 49.6922 16.428C49.6922 15.283 49.9451 14.2778 50.4511 13.4123C50.957 12.5336 51.6493 11.8612 52.5281 11.3952C53.4068 10.9292 54.3921 10.6962 55.4838 10.6962C56.5756 10.6962 57.5608 10.9292 58.4396 11.3952C59.3183 11.8612 60.0107 12.5336 60.5166 13.4123C61.0225 14.2778 61.2755 15.283 61.2755 16.428C61.2755 17.573 61.0159 18.5849 60.4966 19.4636C59.9907 20.3291 59.2917 20.9948 58.3996 21.4608C57.5209 21.9268 56.5357 22.1598 55.4439 22.1598ZM55.4439 19.204C56.0963 19.204 56.6488 18.9644 57.1015 18.4851C57.5675 18.0057 57.8005 17.3201 57.8005 16.428C57.8005 15.536 57.5742 14.8503 57.1215 14.371C56.6821 13.8917 56.1362 13.652 55.4838 13.652C54.8181 13.652 54.2656 13.8917 53.8262 14.371C53.3868 14.837 53.1672 15.5226 53.1672 16.428C53.1672 17.3201 53.3802 18.0057 53.8062 18.4851C54.2456 18.9644 54.7915 19.204 55.4439 19.204ZM66.5024 7.22124V22H63.0873V7.22124H66.5024ZM72.3923 7.22124V22H68.9772V7.22124H72.3923ZM76.5848 9.69768C75.9856 9.69768 75.493 9.52459 75.1069 9.17843C74.7341 8.81894 74.5477 8.37957 74.5477 7.86032C74.5477 7.32775 74.7341 6.88838 75.1069 6.54221C75.493 6.18273 75.9856 6.00299 76.5848 6.00299C77.1706 6.00299 77.6499 6.18273 78.0227 6.54221C78.4088 6.88838 78.6019 7.32775 78.6019 7.86032C78.6019 8.37957 78.4088 8.81894 78.0227 9.17843C77.6499 9.52459 77.1706 9.69768 76.5848 9.69768ZM78.2823 10.856V22H74.8672V10.856H78.2823ZM87.5474 10.7362C88.8522 10.7362 89.8907 11.1622 90.663 12.0144C91.4485 12.8531 91.8413 14.0115 91.8413 15.4894V22H88.4461V15.9487C88.4461 15.2031 88.2531 14.6239 87.867 14.2112C87.4809 13.7985 86.9616 13.5921 86.3092 13.5921C85.6568 13.5921 85.1376 13.7985 84.7515 14.2112C84.3653 14.6239 84.1723 15.2031 84.1723 15.9487V22H80.7572V10.856H84.1723V12.3339C84.5185 11.8413 84.9845 11.4552 85.5703 11.1756C86.1561 10.8826 86.8152 10.7362 87.5474 10.7362ZM98.4483 10.6962C99.2339 10.6962 99.9196 10.856 100.505 11.1756C101.105 11.4951 101.564 11.9145 101.883 12.4337V10.856H105.298V21.98C105.298 23.0052 105.092 23.9306 104.679 24.756C104.28 25.5948 103.661 26.2605 102.822 26.7532C101.997 27.2458 100.965 27.4921 99.7265 27.4921C98.0755 27.4921 96.7375 27.0993 95.7123 26.3138C94.6871 25.5416 94.1012 24.4898 93.9548 23.1583H97.3299C97.4365 23.5844 97.6894 23.9172 98.0888 24.1569C98.4883 24.4099 98.9809 24.5364 99.5667 24.5364C100.272 24.5364 100.832 24.33 101.244 23.9172C101.67 23.5178 101.883 22.8721 101.883 21.98V20.4023C101.551 20.9215 101.091 21.3476 100.505 21.6805C99.9196 22 99.2339 22.1598 98.4483 22.1598C97.5297 22.1598 96.6975 21.9268 95.9519 21.4608C95.2063 20.9815 94.6138 20.3091 94.1745 19.4437C93.7484 18.5649 93.5354 17.5531 93.5354 16.408C93.5354 15.263 93.7484 14.2578 94.1745 13.3924C94.6138 12.5269 95.2063 11.8612 95.9519 11.3952C96.6975 10.9292 97.5297 10.6962 98.4483 10.6962ZM101.883 16.428C101.883 15.5759 101.644 14.9035 101.164 14.4109C100.698 13.9183 100.126 13.672 99.4469 13.672C98.7679 13.672 98.1887 13.9183 97.7094 14.4109C97.2434 14.8902 97.0104 15.5559 97.0104 16.408C97.0104 17.2601 97.2434 17.9392 97.7094 18.4451C98.1887 18.9377 98.7679 19.184 99.4469 19.184C100.126 19.184 100.698 18.9377 101.164 18.4451C101.644 17.9525 101.883 17.2801 101.883 16.428Z" fill="#4A494F"/>
</svg>
